<?xml version="1.0" encoding="UTF-8"?>
<!DOCTYPE svg PUBLIC "-//W3C//DTD SVG 1.1//EN" "http://www.w3.org/Graphics/SVG/1.1/DTD/svg11.dtd">
<!-- Creator: CorelDRAW 2021.5 (Evaluation Version) -->
<svg xmlns="http://www.w3.org/2000/svg" xml:space="preserve" width="380mm" height="220mm" version="1.1" style="shape-rendering:geometricPrecision; text-rendering:geometricPrecision; image-rendering:optimizeQuality; fill-rule:evenodd; clip-rule:evenodd"
viewBox="0 0 380 220"
 xmlns:xlink="http://www.w3.org/1999/xlink"
 xmlns:xodm="http://www.corel.com/coreldraw/odm/2003">
 <defs>
  <style type="text/css">
   <![CDATA[
    .str1 {stroke:#2B2A29;stroke-width:0.0762;stroke-miterlimit:22.9256}
    .str0 {stroke:#1F1B20;stroke-width:0.0762;stroke-linejoin:bevel;stroke-miterlimit:22.9256}
    .fil0 {fill:none}
   ]]>
  </style>
 </defs>
 <g id="Layer_x0020_1">
  <metadata id="CorelCorpID_0Corel-Layer"/>
  <path id="Screw" class="fil0 str0" d="M191.5233 27.5667c0,-0.8837 -0.7163,-1.6 -1.6,-1.6 -0.8837,0 -1.6,0.7163 -1.6,1.6 0,0.8837 0.7163,1.6 1.6,1.6 0.8837,0 1.6,-0.7163 1.6,-1.6z"/>
  <path id="Screw_0" class="fil0 str0" d="M191.5233 192.5667c0,-0.8837 -0.7163,-1.6 -1.6,-1.6 -0.8837,0 -1.6,0.7163 -1.6,1.6 0,0.8837 0.7163,1.6 1.6,1.6 0.8837,0 1.6,-0.7163 1.6,-1.6z"/>
  <path id="Screw_1" class="fil0 str0" d="M358.0232 192.5667c0,-0.8837 -0.7163,-1.6 -1.6,-1.6 -0.8837,0 -1.6,0.7163 -1.6,1.6 0,0.8837 0.7163,1.6 1.6,1.6 0.8837,0 1.6,-0.7163 1.6,-1.6z"/>
  <path id="Screw_2" class="fil0 str0" d="M358.0232 27.5667c0,-0.8837 -0.7163,-1.6 -1.6,-1.6 -0.8837,0 -1.6,0.7163 -1.6,1.6 0,0.8837 0.7163,1.6 1.6,1.6 0.8837,0 1.6,-0.7163 1.6,-1.6z"/>
  <path id="Screw_3" class="fil0 str0" d="M25.0232 27.5667c0,-0.8837 -0.7163,-1.6 -1.6,-1.6 -0.8837,0 -1.6,0.7163 -1.6,1.6 0,0.8837 0.7163,1.6 1.6,1.6 0.8837,0 1.6,-0.7163 1.6,-1.6z"/>
  <path id="Screw_4" class="fil0 str0" d="M25.0232 192.5667c0,-0.8837 -0.7163,-1.6 -1.6,-1.6 -0.8837,0 -1.6,0.7163 -1.6,1.6 0,0.8837 0.7163,1.6 1.6,1.6 0.8837,0 1.6,-0.7163 1.6,-1.6z"/>
  <path id="StickTop" class="fil0 str0" d="M103.9315 90.1081c6.6274,0 12,5.3726 12,12 0,6.6274 -5.3726,12 -12,12 -6.6274,0 -12,-5.3726 -12,-12 0,-6.6274 5.3726,-12 12,-12z"/>
  <path id="_3K" class="fil0 str0" d="M280.0815 92.1956c8.2843,0 15,6.7157 15,15 0,8.2843 -6.7157,15 -15,15 -8.2843,0 -15,-6.7157 -15,-15 0,-8.2843 6.7157,-15 15,-15z"/>
  <path id="_3P" class="fil0 str0" d="M286.0815 52.7081c8.2843,0 15,6.7157 15,15 0,8.2843 -6.7157,15 -15,15 -8.2843,0 -15,-6.7157 -15,-15 0,-8.2843 6.7157,-15 15,-15z"/>
  <path id="HK" class="fil0 str0" d="M245.0816 92.1956c8.2843,0 15,6.7157 15,15 0,8.2843 -6.7157,15 -15,15 -8.2843,0 -15,-6.7157 -15,-15 0,-8.2843 6.7157,-15 15,-15z"/>
  <path id="HP" class="fil0 str0" d="M251.0815 52.6956c8.2843,0 15,6.7157 15,15 0,8.2843 -6.7157,15 -15,15 -8.2843,0 -15,-6.7157 -15,-15 0,-8.2843 6.7157,-15 15,-15z"/>
  <path id="MK" class="fil0 str0" d="M210.0815 92.1956c8.2843,0 15,6.7157 15,15 0,8.2843 -6.7157,15 -15,15 -8.2843,0 -15,-6.7157 -15,-15 0,-8.2843 6.7157,-15 15,-15z"/>
  <path id="MP" class="fil0 str0" d="M216.0815 52.7081c8.2843,0 15,6.7157 15,15 0,8.2843 -6.7157,15 -15,15 -8.2843,0 -15,-6.7157 -15,-15 0,-8.2843 6.7157,-15 15,-15z"/>
  <path id="LK" class="fil0 str0" d="M175.0815 107.0456c8.2843,0 15,6.7157 15,15 0,8.2843 -6.7157,15 -15,15 -8.2843,0 -15,-6.7157 -15,-15 0,-8.2843 6.7157,-15 15,-15z"/>
  <path id="Outline" class="fil0 str0" d="M19.9233 220.0667l340 0c5.3077,-0.0034 10.3967,-2.1151 14.1474,-5.8706 3.7507,-3.7554 5.856,-8.8218 5.8526,-14.1294l0 -180c-0.0033,-5.3077 -2.115,-10.3967 -5.8705,-14.1474 -3.7555,-3.7507 -8.8218,-5.856 -14.1295,-5.8526l-340 0c-5.3077,0.0033 -10.3966,2.115 -14.1474,5.8705 -3.7507,3.7554 -5.8559,8.8218 -5.8526,14.1295l0 180c0.0034,5.3076 2.115,10.3966 5.8705,14.1473 3.7555,3.7507 8.8218,5.856 14.1295,5.8527z"/>
  <circle id="LP" class="fil0 str1" cx="181.0815" cy="82.5581" r="15"/>
 </g>
</svg>
